<?xml version="1.0" encoding="utf-8"?>
<!-- Generator: Adobe Illustrator 21.1.0, SVG Export Plug-In . SVG Version: 6.00 Build 0)  -->
<svg version="1.1" id="Ebene_1" xmlns="http://www.w3.org/2000/svg" xmlns:xlink="http://www.w3.org/1999/xlink" x="0px" y="0px"
	 viewBox="0 0 141.7 141.7" style="enable-background:new 0 0 141.7 141.7;" xml:space="preserve">
<style type="text/css">
	.st0{fill:#D50F2E;}
	.st1{fill:#EDEDED;}
	.st2{fill:#FFFFFF;}
</style>
<g>
	<g>
		<g>
			<g>
				<ellipse class="st0" cx="70.8" cy="70.9" rx="66.9" ry="66.9"/>
				<path class="st1" d="M70.8,141.7c-39,0-70.8-31.8-70.8-70.8S31.8,0,70.8,0s70.9,31.8,70.9,70.9S109.8,141.7,70.8,141.7z M70.8,8
					C36.2,8,8,36.2,8,70.9s28.2,62.8,62.8,62.8s62.8-28.2,62.8-62.8S105.4,8,70.8,8z"/>
			</g>
		</g>
	</g>
	<g>
		<path class="st2" d="M118.6,66.1c-1.3-3-3-5.7-5.3-8c-4.7-4.8-11-7.4-17.8-7.4c-1.5-3.3-3.5-6.3-6.1-8.9
			c-5.3-5.3-12.2-8.3-19.7-8.6c-0.1,0-0.1,0-0.2,0c-0.3,0-0.7,0-1,0c-7.9,0-15.3,3.1-20.8,8.6c-1.2,1.2-2.3,2.5-3.3,3.9l-0.1,0.1
			c-0.1,0.1-0.2,0.2-0.2,0.4c-0.1,0.1-0.2,0.2-0.2,0.3c0,0,0,0.1-0.1,0.1c-0.2,0.3-0.4,0.7-0.6,1h5.4c4.6-6,11.8-9.9,19.9-9.9
			c0.3,0,0.6,0,0.9,0c0.1,0,0.1,0,0.2,0c10.7,0.5,19.9,7.7,22.8,17.8l0,0c0.7,2.3,1,4.6,1,7.1c0,4.1-1,8-2.8,11.5l3.9,2.3
			c2.2-4.2,3.4-8.9,3.4-13.7c0-2.5-0.3-5-0.9-7.4c10.7,0.8,18.9,9.9,18.9,20.5c0,11.1-9.1,20.2-19.5,20.2h-0.3H71.5v4.5h24.6h0.3
			c3.2,0,6.3-0.7,9.3-2c2.8-1.3,5.4-3,7.6-5.3c4.6-4.7,7.1-10.9,7.1-17.4C120.6,72.5,119.9,69.2,118.6,66.1z"/>
		<polygon class="st2" points="28.2,76.4 36.5,76.4 32.3,69.2 		"/>
		<ellipse class="st2" cx="46" cy="72.8" rx="3.6" ry="3.6"/>
		<polygon class="st2" points="61.7,76.4 63.8,72.8 61.7,69.2 57.5,69.2 55.4,72.8 57.5,76.4 		"/>
		<path class="st2" d="M62.7,51H29.3l-0.6-1h-4.9v3.8v12v18.8v13.7v2.1h4.9l0.6-1h33.4l0.6,1h4.9v-2.1V84.7V65.9v-12v-3.8h-4.9
			L62.7,51z M57.8,55l1.6-0.9L61,55v1.8l-1.6,0.9l-1.6-0.9C57.8,56.8,57.8,55,57.8,55z M53,55l1.6-0.9l1.6,0.9v1.8l-1.6,0.9L53,56.8
			V55z M26.2,66.6h12.2V79H26.2V66.6z M65.7,96.5H26.2V81h39.5V96.5z M39.9,79V66.6h12.2V79H39.9z M65.7,79H53.5V66.6h12.2V79z
			 M65.7,64.6H26.2v-4.4h39.5V64.6z M65.7,55v1.8l-1.6,0.9l-1.6-0.9V55l1.6-0.9L65.7,55z"/>
		<polygon class="st2" points="33.4,92.9 34.8,88 36.1,92.9 38.3,92.9 40.2,84.7 37.8,84.7 36.9,89.5 35.6,84.7 33.9,84.7 
			32.6,89.6 31.8,84.7 29.3,84.7 31.3,92.9 		"/>
		<polygon class="st2" points="44.6,92.9 46,88 47.3,92.9 49.5,92.9 51.4,84.7 49,84.7 48.1,89.5 46.9,84.7 45.1,84.7 43.8,89.6 
			43,84.7 40.5,84.7 42.5,92.9 		"/>
		<polygon class="st2" points="55.8,92.9 57.2,88 58.5,92.9 60.7,92.9 62.6,84.7 60.2,84.7 59.4,89.5 58.1,84.7 56.3,84.7 55,89.6 
			54.2,84.7 51.8,84.7 53.7,92.9 		"/>
	</g>
</g>
</svg>
